<svg width="22" height="22" viewBox="0 0 22 22" fill="none" xmlns="http://www.w3.org/2000/svg">
<path d="M11 17.4163C14.0342 17.4163 16.5 14.9505 16.5 11.9163V7.33301C16.5 4.29884 14.0342 1.83301 11 1.83301C7.96583 1.83301 5.5 4.29884 5.5 7.33301V11.9163C5.5 14.9505 7.96583 17.4163 11 17.4163Z" stroke="#254863" stroke-opacity="0.8" stroke-width="1.5" stroke-linecap="round" stroke-linejoin="round"/>
<path d="M2.75 10.083V11.9163C2.75 16.4722 6.44417 20.1663 11 20.1663C15.5558 20.1663 19.25 16.4722 19.25 11.9163V10.083" stroke="#254863" stroke-opacity="0.8" stroke-width="1.5" stroke-linecap="round" stroke-linejoin="round"/>
<path d="M8.35085 6.85654C9.98251 6.26071 11.7608 6.26071 13.3925 6.85654" stroke="#254863" stroke-opacity="0.8" stroke-width="1.5" stroke-linecap="round" stroke-linejoin="round"/>
<path d="M9.19415 9.60676C10.2942 9.30426 11.4583 9.30426 12.5583 9.60676" stroke="#254863" stroke-opacity="0.8" stroke-width="1.5" stroke-linecap="round" stroke-linejoin="round"/>
</svg>
